# xmcd
#
# Track frame offsets:
#	150
#	16271
#	31429
#	51287
#	65623
#	80987
#	94737
#	110661
#	127124
#	141356
#	157804
#
# Disc length: 2603 seconds
#
# Revision: 0
# Processed by: cddbd v1.5.2PL0 Copyright (c) Steve Scherf et al.
# Submitted via: EasyCDDAExtractor 12.0.4.1
#
DISCID=9b0a290b
DTITLE=CAT CLUB - HISTORIAS DEL LADO ESTE
DYEAR=2011
DGENRE=ROCKABILLY
TTITLE0=HISTORIAS DEL LADO ESTE
TTITLE1=JET SONG
TTITLE2=EL RESTO DE NUESTROS DIAS
TTITLE3=LO POCO BUENO QUE ME QUEDA SIN TI
TTITLE4=MI FUNERAL
TTITLE5=HABITACION 401
TTITLE6=QUIEN... DIME QUIEN
TTITLE7=COMIDA PARA GATOS
TTITLE8=DIAS DE VINO Y MOSCAS
TTITLE9=NO LLORES POR MI
TTITLE10=BUENOS DIAS TRISTEZA
EXTD=
EXTT0=
EXTT1=
EXTT2=
EXTT3=
EXTT4=
EXTT5=
EXTT6=
EXTT7=
EXTT8=
EXTT9=
EXTT10=
PLAYORDER=
